ffmpeg started on 2025-05-26 at 19:30:02
Report written to "D:\Convert\FFMetrics\reports\ssim_report-6.txt"
Log level: 32
Command line:
ffmpeg -hide_banner -nostdin -i "G:\\\xc0\xed\xe8\xec\xe5\\\xce\xed\xe3\xee\xe8\xed\xe3\xe8\\!_34_\xc2\xe5\xf1\xed\xe0_2024\\DreamCast\\\xcc\xee\xe9 \xf1\xee\xf1\xe5\xe4-\xb8\xea\xe0\xe9\\[DC] Tonari no Youkai-san - 13_Telegram_HEVC.mkv" -i "G:\\\xc0\xed\xe8\xec\xe5\\\xce\xed\xe3\xee\xe8\xed\xe3\xe8\\!_34_\xc2\xe5\xf1\xed\xe0_2024\\DreamCast\\\xcc\xee\xe9 \xf1\xee\xf1\xe5\xe4-\xb8\xea\xe0\xe9\\[DC] Tonari no Youkai-san - 13_Telegram.mp4" -lavfi "[0:v]settb=AVTB,setpts=PTS-STARTPTS,format=pix_fmts=yuv420p10,fps=24000/1001,scale=1920:1080:flags=bicubic[main];[1:v]settb=AVTB,setpts=PTS-STARTPTS,format=pix_fmts=yuv420p,fps=24000/1001,scale=1920:1080:flags=bicubic[ref];[main][ref]ssim=eof_action=endall:stats_file='D\\:/Convert/FFMetrics/logs/ssim_logfile-6.txt'" -f null -
Input #0, matroska,webm, from 'G:\Аниме\Онгоинги\!_34_Весна_2024\DreamCast\Мой сосед-ёкай\[DC] Tonari no Youkai-san - 13_Telegram_HEVC.mkv':
  Metadata:
    COMPATIBLE_BRANDS: isomiso2avc1mp41
    MAJOR_BRAND     : isom
    MINOR_VERSION   : 512
    ENCODER         : Lavf61.7.100
  Duration: 00:23:46.69, start: -0.021000, bitrate: 883 kb/s
  Stream #0:0: Video: hevc (Main 10), yuv420p10le(tv, bt709, progressive), 1920x1080 [SAR 1:1 DAR 16:9], 23.98 fps, 23.98 tbr, 1k tbn (default)
      Metadata:
        HANDLER_NAME    : VideoHandler
        VENDOR_ID       : [0][0][0][0]
        ENCODER         : Lavc61.19.100 libx265
        BPS             : 685868
        DURATION        : 00:23:46.508708333
        NUMBER_OF_FRAMES: 34202
        NUMBER_OF_BYTES : 122299667
        _STATISTICS_WRITING_APP: mkvpropedit v66.0.0 ('Josie') 64-bit
        _STATISTICS_WRITING_DATE_UTC: 2025-05-26 14:47:48
        _STATISTICS_TAGS: BPS DURATION NUMBER_OF_FRAMES NUMBER_OF_BYTES
  Stream #0:1: Audio: aac (LC), 48000 Hz, stereo, fltp (default)
      Metadata:
        HANDLER_NAME    : SoundHandler
        VENDOR_ID       : [0][0][0][0]
        ENCODER         : Lavc61.19.100 aac
        BPS             : 193868
        DURATION        : 00:23:46.688000000
        NUMBER_OF_FRAMES: 66877
        NUMBER_OF_BYTES : 34573746
        _STATISTICS_WRITING_APP: mkvpropedit v66.0.0 ('Josie') 64-bit
        _STATISTICS_WRITING_DATE_UTC: 2025-05-26 14:47:48
        _STATISTICS_TAGS: BPS DURATION NUMBER_OF_FRAMES NUMBER_OF_BYTES
Input #1, mov,mp4,m4a,3gp,3g2,mj2, from 'G:\Аниме\Онгоинги\!_34_Весна_2024\DreamCast\Мой сосед-ёкай\[DC] Tonari no Youkai-san - 13_Telegram.mp4':
  Metadata:
    major_brand     : isom
    minor_version   : 512
    compatible_brands: isomiso2avc1mp41
    encoder         : Lavf61.1.100
  Duration: 00:23:46.63, start: 0.000000, bitrate: 3547 kb/s
  Stream #1:0[0x1](und): Video: h264 (High) (avc1 / 0x31637661), yuv420p(tv, bt709, progressive), 1920x1080 [SAR 1:1 DAR 16:9], 3400 kb/s, 23.98 fps, 23.98 tbr, 24k tbn (default)
      Metadata:
        handler_name    : VideoHandler
        vendor_id       : [0][0][0][0]
        encoder         : Lavc61.3.100 h264_qsv
  Stream #1:1[0x2](und): Audio: aac (HE-AACv2) (mp4a / 0x6134706D), 48000 Hz, stereo, fltp, 144 kb/s (default)
      Metadata:
        handler_name    : SoundHandler
        vendor_id       : [0][0][0][0]
Stream mapping:
  Stream #0:0 (hevc) -> settb:default
  Stream #1:0 (h264) -> settb:default
  ssim:default -> Stream #0:0 (wrapped_avframe)
  Stream #0:1 -> #0:1 (aac (native) -> pcm_s16le (native))
Output #0, null, to 'pipe:':
  Metadata:
    COMPATIBLE_BRANDS: isomiso2avc1mp41
    MAJOR_BRAND     : isom
    MINOR_VERSION   : 512
    encoder         : Lavf61.7.100
  Stream #0:0: Video: wrapped_avframe, yuv420p10le(tv, bt709, progressive), 1920x1080 [SAR 1:1 DAR 16:9], q=2-31, 200 kb/s, 23.98 fps, 23.98 tbn
      Metadata:
        encoder         : Lavc61.19.100 wrapped_avframe
  Stream #0:1: Audio: pcm_s16le, 48000 Hz, stereo, s16, 1536 kb/s (default)
      Metadata:
        HANDLER_NAME    : SoundHandler
        VENDOR_ID       : [0][0][0][0]
        _STATISTICS_TAGS: BPS DURATION NUMBER_OF_FRAMES NUMBER_OF_BYTES
        BPS             : 193868
        DURATION        : 00:23:46.688000000
        NUMBER_OF_FRAMES: 66877
        NUMBER_OF_BYTES : 34573746
        _STATISTICS_WRITING_APP: mkvpropedit v66.0.0 ('Josie') 64-bit
        _STATISTICS_WRITING_DATE_UTC: 2025-05-26 14:47:48
        encoder         : Lavc61.19.100 pcm_s16le
frame=  181 fps=0.0 q=-0.0 size=N/A time=00:00:07.54 bitrate=N/A speed=14.3x    frame=  386 fps=373 q=-0.0 size=N/A time=00:00:16.09 bitrate=N/A speed=15.6x    frame=  593 fps=381 q=-0.0 size=N/A time=00:00:24.73 bitrate=N/A speed=15.9x    frame=  807 fps=391 q=-0.0 size=N/A time=00:00:33.65 bitrate=N/A speed=16.3x    frame= 1075 fps=416 q=-0.0 size=N/A time=00:00:44.83 bitrate=N/A speed=17.3x    frame= 1314 fps=424 q=-0.0 size=N/A time=00:00:54.80 bitrate=N/A speed=17.7x    frame= 1568 fps=434 q=-0.0 size=N/A time=00:01:05.39 bitrate=N/A speed=18.1x    frame= 1822 fps=441 q=-0.0 size=N/A time=00:01:15.99 bitrate=N/A speed=18.4x    frame= 2083 fps=449 q=-0.0 size=N/A time=00:01:26.87 bitrate=N/A speed=18.7x    frame= 2355 fps=456 q=-0.0 size=N/A time=00:01:38.22 bitrate=N/A speed=  19x    frame= 2594 fps=457 q=-0.0 size=N/A time=00:01:48.19 bitrate=N/A speed=19.1x    frame= 2864 fps=463 q=-0.0 size=N/A time=00:01:59.45 bitrate=N/A speed=19.3x    frame= 3143 fps=468 q=-0.0 size=N/A time=00:02:11.08 bitrate=N/A speed=19.5x    frame= 3416 fps=473 q=-0.0 size=N/A time=00:02:22.47 bitrate=N/A speed=19.7x    frame= 3663 fps=473 q=-0.0 size=N/A time=00:02:32.77 bitrate=N/A speed=19.7x    frame= 3912 fps=474 q=-0.0 size=N/A time=00:02:43.16 bitrate=N/A speed=19.8x    frame= 4179 fps=476 q=-0.0 size=N/A time=00:02:54.29 bitrate=N/A speed=19.9x    frame= 4440 fps=478 q=-0.0 size=N/A time=00:03:05.18 bitrate=N/A speed=19.9x    frame= 4703 fps=480 q=-0.0 size=N/A time=00:03:16.15 bitrate=N/A speed=  20x    frame= 4981 fps=482 q=-0.0 size=N/A time=00:03:27.74 bitrate=N/A speed=20.1x    frame= 5248 fps=484 q=-0.0 size=N/A time=00:03:38.88 bitrate=N/A speed=20.2x    frame= 5510 fps=486 q=-0.0 size=N/A time=00:03:49.81 bitrate=N/A speed=20.3x    frame= 5777 fps=487 q=-0.0 size=N/A time=00:04:00.94 bitrate=N/A speed=20.3x    frame= 6051 fps=488 q=-0.0 size=N/A time=00:04:12.37 bitrate=N/A speed=20.4x    frame= 6280 fps=487 q=-0.0 size=N/A time=00:04:21.92 bitrate=N/A speed=20.3x    frame= 6534 fps=487 q=-0.0 size=N/A time=00:04:32.52 bitrate=N/A speed=20.3x    frame= 6767 fps=486 q=-0.0 size=N/A time=00:04:42.24 bitrate=N/A speed=20.3x    frame= 7047 fps=488 q=-0.0 size=N/A time=00:04:53.91 bitrate=N/A speed=20.3x    frame= 7300 fps=488 q=-0.0 size=N/A time=00:05:04.47 bitrate=N/A speed=20.4x    frame= 7548 fps=488 q=-0.0 size=N/A time=00:05:14.81 bitrate=N/A speed=20.3x    frame= 7807 fps=488 q=-0.0 size=N/A time=00:05:25.61 bitrate=N/A speed=20.4x    frame= 8059 fps=488 q=-0.0 size=N/A time=00:05:36.12 bitrate=N/A speed=20.4x    frame= 8322 fps=489 q=-0.0 size=N/A time=00:05:47.09 bitrate=N/A speed=20.4x    frame= 8602 fps=490 q=-0.0 size=N/A time=00:05:58.77 bitrate=N/A speed=20.4x    frame= 8871 fps=491 q=-0.0 size=N/A time=00:06:09.99 bitrate=N/A speed=20.5x    frame= 9148 fps=492 q=-0.0 size=N/A time=00:06:21.54 bitrate=N/A speed=20.5x    frame= 9414 fps=493 q=-0.0 size=N/A time=00:06:32.64 bitrate=N/A speed=20.6x    frame= 9694 fps=494 q=-0.0 size=N/A time=00:06:44.32 bitrate=N/A speed=20.6x    frame= 9952 fps=495 q=-0.0 size=N/A time=00:06:55.08 bitrate=N/A speed=20.6x    frame=10233 fps=496 q=-0.0 size=N/A time=00:07:06.80 bitrate=N/A speed=20.7x    frame=10484 fps=496 q=-0.0 size=N/A time=00:07:17.27 bitrate=N/A speed=20.7x    frame=10757 fps=497 q=-0.0 size=N/A time=00:07:28.65 bitrate=N/A speed=20.7x    frame=11010 fps=497 q=-0.0 size=N/A time=00:07:39.20 bitrate=N/A speed=20.7x    frame=11287 fps=497 q=-0.0 size=N/A time=00:07:50.76 bitrate=N/A speed=20.7x    frame=11543 fps=497 q=-0.0 size=N/A time=00:08:01.43 bitrate=N/A speed=20.7x    frame=11800 fps=497 q=-0.0 size=N/A time=00:08:12.15 bitrate=N/A speed=20.7x    frame=12065 fps=497 q=-0.0 size=N/A time=00:08:23.21 bitrate=N/A speed=20.7x    frame=12305 fps=497 q=-0.0 size=N/A time=00:08:33.22 bitrate=N/A speed=20.7x    frame=12559 fps=497 q=-0.0 size=N/A time=00:08:43.81 bitrate=N/A speed=20.7x    frame=12835 fps=498 q=-0.0 size=N/A time=00:08:55.32 bitrate=N/A speed=20.8x    frame=13104 fps=498 q=-0.0 size=N/A time=00:09:06.54 bitrate=N/A speed=20.8x    frame=13382 fps=499 q=-0.0 size=N/A time=00:09:18.14 bitrate=N/A speed=20.8x    frame=13679 fps=500 q=-0.0 size=N/A time=00:09:30.52 bitrate=N/A speed=20.9x    frame=13921 fps=500 q=-0.0 size=N/A time=00:09:40.62 bitrate=N/A speed=20.8x    frame=14131 fps=498 q=-0.0 size=N/A time=00:09:49.38 bitrate=N/A speed=20.8x    frame=14354 fps=497 q=-0.0 size=N/A time=00:09:58.68 bitrate=N/A speed=20.7x    frame=14551 fps=495 q=-0.0 size=N/A time=00:10:06.89 bitrate=N/A speed=20.6x    frame=14781 fps=494 q=-0.0 size=N/A time=00:10:16.49 bitrate=N/A speed=20.6x    frame=15054 fps=494 q=-0.0 size=N/A time=00:10:27.87 bitrate=N/A speed=20.6x    frame=15270 fps=493 q=-0.0 size=N/A time=00:10:36.88 bitrate=N/A speed=20.6x    frame=15445 fps=491 q=-0.0 size=N/A time=00:10:44.18 bitrate=N/A speed=20.5x    frame=15660 fps=489 q=-0.0 size=N/A time=00:10:53.15 bitrate=N/A speed=20.4x    frame=15846 fps=487 q=-0.0 size=N/A time=00:11:00.91 bitrate=N/A speed=20.3x    frame=16077 fps=487 q=-0.0 size=N/A time=00:11:10.54 bitrate=N/A speed=20.3x    frame=16320 fps=487 q=-0.0 size=N/A time=00:11:20.68 bitrate=N/A speed=20.3x    frame=16551 fps=486 q=-0.0 size=N/A time=00:11:30.31 bitrate=N/A speed=20.3x    frame=16797 fps=486 q=-0.0 size=N/A time=00:11:40.57 bitrate=N/A speed=20.3x    frame=17072 fps=487 q=-0.0 size=N/A time=00:11:52.04 bitrate=N/A speed=20.3x    frame=17336 fps=487 q=-0.0 size=N/A time=00:12:03.05 bitrate=N/A speed=20.3x    frame=17565 fps=486 q=-0.0 size=N/A time=00:12:12.60 bitrate=N/A speed=20.3x    frame=17779 fps=485 q=-0.0 size=N/A time=00:12:21.53 bitrate=N/A speed=20.2x    frame=18044 fps=486 q=-0.0 size=N/A time=00:12:32.58 bitrate=N/A speed=20.3x    frame=18293 fps=486 q=-0.0 size=N/A time=00:12:42.97 bitrate=N/A speed=20.3x    frame=18545 fps=486 q=-0.0 size=N/A time=00:12:53.48 bitrate=N/A speed=20.3x    frame=18730 fps=484 q=-0.0 size=N/A time=00:13:01.19 bitrate=N/A speed=20.2x    frame=18992 fps=484 q=-0.0 size=N/A time=00:13:12.12 bitrate=N/A speed=20.2x    frame=19268 fps=485 q=-0.0 size=N/A time=00:13:23.63 bitrate=N/A speed=20.2x    frame=19522 fps=485 q=-0.0 size=N/A time=00:13:34.23 bitrate=N/A speed=20.2x    frame=19776 fps=485 q=-0.0 size=N/A time=00:13:44.82 bitrate=N/A speed=20.2x    frame=20054 fps=486 q=-0.0 size=N/A time=00:13:56.41 bitrate=N/A speed=20.3x    frame=20314 fps=486 q=-0.0 size=N/A time=00:14:07.26 bitrate=N/A speed=20.3x    frame=20582 fps=487 q=-0.0 size=N/A time=00:14:18.44 bitrate=N/A speed=20.3x    frame=20855 fps=487 q=-0.0 size=N/A time=00:14:29.82 bitrate=N/A speed=20.3x    frame=21129 fps=488 q=-0.0 size=N/A time=00:14:41.25 bitrate=N/A speed=20.3x    frame=21400 fps=488 q=-0.0 size=N/A time=00:14:52.55 bitrate=N/A speed=20.4x    frame=21664 fps=488 q=-0.0 size=N/A time=00:15:03.56 bitrate=N/A speed=20.4x    frame=21953 fps=489 q=-0.0 size=N/A time=00:15:15.62 bitrate=N/A speed=20.4x    frame=22219 fps=489 q=-0.0 size=N/A time=00:15:26.71 bitrate=N/A speed=20.4x    frame=22507 fps=490 q=-0.0 size=N/A time=00:15:38.72 bitrate=N/A speed=20.4x    frame=22765 fps=490 q=-0.0 size=N/A time=00:15:49.49 bitrate=N/A speed=20.5x    frame=23001 fps=490 q=-0.0 size=N/A time=00:15:59.33 bitrate=N/A speed=20.4x    frame=23279 fps=490 q=-0.0 size=N/A time=00:16:10.92 bitrate=N/A speed=20.5x    frame=23529 fps=490 q=-0.0 size=N/A time=00:16:21.35 bitrate=N/A speed=20.5x    frame=23791 fps=491 q=-0.0 size=N/A time=00:16:32.28 bitrate=N/A speed=20.5x    frame=24066 fps=491 q=-0.0 size=N/A time=00:16:43.75 bitrate=N/A speed=20.5x    frame=24328 fps=491 q=-0.0 size=N/A time=00:16:54.68 bitrate=N/A speed=20.5x    frame=24601 fps=492 q=-0.0 size=N/A time=00:17:06.06 bitrate=N/A speed=20.5x    frame=24862 fps=492 q=-0.0 size=N/A time=00:17:16.95 bitrate=N/A speed=20.5x    frame=25153 fps=493 q=-0.0 size=N/A time=00:17:29.08 bitrate=N/A speed=20.5x    frame=25401 fps=492 q=-0.0 size=N/A time=00:17:39.43 bitrate=N/A speed=20.5x    frame=25673 fps=493 q=-0.0 size=N/A time=00:17:50.77 bitrate=N/A speed=20.6x    frame=25951 fps=493 q=-0.0 size=N/A time=00:18:02.37 bitrate=N/A speed=20.6x    frame=26222 fps=494 q=-0.0 size=N/A time=00:18:13.67 bitrate=N/A speed=20.6x    frame=26470 fps=493 q=-0.0 size=N/A time=00:18:24.01 bitrate=N/A speed=20.6x    frame=26735 fps=494 q=-0.0 size=N/A time=00:18:35.07 bitrate=N/A speed=20.6x    frame=26974 fps=493 q=-0.0 size=N/A time=00:18:45.04 bitrate=N/A speed=20.6x    frame=27180 fps=492 q=-0.0 size=N/A time=00:18:53.63 bitrate=N/A speed=20.5x    frame=27371 fps=491 q=-0.0 size=N/A time=00:19:01.59 bitrate=N/A speed=20.5x    frame=27561 fps=490 q=-0.0 size=N/A time=00:19:09.52 bitrate=N/A speed=20.4x    frame=27816 fps=490 q=-0.0 size=N/A time=00:19:20.15 bitrate=N/A speed=20.4x    frame=28096 fps=491 q=-0.0 size=N/A time=00:19:31.83 bitrate=N/A speed=20.5x    frame=28379 fps=491 q=-0.0 size=N/A time=00:19:43.64 bitrate=N/A speed=20.5x    frame=28653 fps=492 q=-0.0 size=N/A time=00:19:55.06 bitrate=N/A speed=20.5x    frame=28895 fps=491 q=-0.0 size=N/A time=00:20:05.16 bitrate=N/A speed=20.5x    frame=29139 fps=491 q=-0.0 size=N/A time=00:20:15.33 bitrate=N/A speed=20.5x    frame=29398 fps=491 q=-0.0 size=N/A time=00:20:26.14 bitrate=N/A speed=20.5x    frame=29677 fps=492 q=-0.0 size=N/A time=00:20:37.77 bitrate=N/A speed=20.5x    frame=29973 fps=492 q=-0.0 size=N/A time=00:20:50.12 bitrate=N/A speed=20.5x    frame=30213 fps=492 q=-0.0 size=N/A time=00:21:00.13 bitrate=N/A speed=20.5x    frame=30469 fps=492 q=-0.0 size=N/A time=00:21:10.81 bitrate=N/A speed=20.5x    frame=30744 fps=492 q=-0.0 size=N/A time=00:21:22.28 bitrate=N/A speed=20.5x    frame=31002 fps=493 q=-0.0 size=N/A time=00:21:33.04 bitrate=N/A speed=20.5x    frame=31253 fps=492 q=-0.0 size=N/A time=00:21:43.51 bitrate=N/A speed=20.5x    frame=31521 fps=493 q=-0.0 size=N/A time=00:21:54.68 bitrate=N/A speed=20.6x    frame=31765 fps=493 q=-0.0 size=N/A time=00:22:04.86 bitrate=N/A speed=20.5x    frame=32032 fps=493 q=-0.0 size=N/A time=00:22:16.00 bitrate=N/A speed=20.5x    frame=32288 fps=493 q=-0.0 size=N/A time=00:22:26.67 bitrate=N/A speed=20.5x    frame=32526 fps=492 q=-0.0 size=N/A time=00:22:36.60 bitrate=N/A speed=20.5x    frame=32779 fps=492 q=-0.0 size=N/A time=00:22:47.15 bitrate=N/A speed=20.5x    frame=33026 fps=492 q=-0.0 size=N/A time=00:22:57.45 bitrate=N/A speed=20.5x    frame=33251 fps=492 q=-0.0 size=N/A time=00:23:06.84 bitrate=N/A speed=20.5x    frame=33508 fps=492 q=-0.0 size=N/A time=00:23:17.56 bitrate=N/A speed=20.5x    frame=33792 fps=492 q=-0.0 size=N/A time=00:23:29.40 bitrate=N/A speed=20.5x    frame=34019 fps=492 q=-0.0 size=N/A time=00:23:38.87 bitrate=N/A speed=20.5x    [Parsed_ssim_10 @ 0000029dc6e45b80] SSIM Y:0.995587 (23.552201) U:0.995057 (23.060045) V:0.995055 (23.058378) All:0.995410 (23.381577)
[out#0/null @ 0000029dba154e80] video:14696KiB audio:267508KiB subtitle:0KiB other streams:0KiB global headers:0KiB muxing overhead: unknown
frame=34202 fps=492 q=-0.0 Lsize=N/A time=00:23:46.50 bitrate=N/A speed=20.5x    
